<?xml version="1.0" encoding="UTF-8" standalone="no"?>
<!-- Created with Inkscape (http://www.inkscape.org/) -->
<svg xmlns:svg="http://www.w3.org/2000/svg" xmlns="http://www.w3.org/2000/svg" xmlns:xlink="http://www.w3.org/1999/xlink" version="1.0" width="946.24384" height="565.01233" id="svg2440">
  <defs id="defs2443">
    <marker refX="0" refY="0" orient="auto" id="Arrow1Lend" style="overflow:visible">
      <path d="M 0,0 L 5,-5 L -12.5,0 L 5,5 L 0,0 z" transform="matrix(-0.8,0,0,-0.8,-10,0)" id="path3327" style="fill-rule:evenodd;stroke:#000000;stroke-width:1pt;marker-start:none"/>
    </marker>
    <linearGradient x1="33.506878" y1="37.9375" x2="33.625" y2="37.173367" id="linearGradient3419" xlink:href="#linearGradient3413" gradientUnits="userSpaceOnUse"/>
    <linearGradient x1="38.308968" y1="24.675686" x2="37.037182" y2="20.529673" id="linearGradient2666" xlink:href="#linearGradient1476" gradientUnits="userSpaceOnUse" gradientTransform="translate(-3.016282,9.06603)"/>
    <linearGradient x1="35.781757" y1="21.261322" x2="35.262543" y2="16.452835" id="linearGradient2663" xlink:href="#linearGradient1482" gradientUnits="userSpaceOnUse" gradientTransform="translate(-3.535975,8.56603)"/>
    <radialGradient cx="23.499994" cy="26.000002" r="19.5" fx="23.499994" fy="26.000002" id="radialGradient2655" xlink:href="#linearGradient3635" gradientUnits="userSpaceOnUse" gradientTransform="matrix(1.620985,5.750583e-7,-7.015418e-8,0.197752,-14.59314,35.92447)"/>
    <linearGradient x1="196.88957" y1="63.996719" x2="196.88957" y2="67.691895" id="linearGradient2650" xlink:href="#linearGradient4663" gradientUnits="userSpaceOnUse" gradientTransform="matrix(1,0,0,1.243227,-190,-42.67891)"/>
    <linearGradient x1="7.9987206" y1="35.039005" x2="7.5" y2="45" id="linearGradient2648" xlink:href="#linearGradient2823" gradientUnits="userSpaceOnUse" gradientTransform="matrix(1,0,0,1.132922,0,-4.981072)"/>
    <linearGradient x1="42.75" y1="37" x2="5" y2="43.125" id="linearGradient2646" xlink:href="#linearGradient2829" gradientUnits="userSpaceOnUse" gradientTransform="matrix(1,0,0,1.132922,0,-4.981072)"/>
    <radialGradient cx="23.96336" cy="40.374615" r="23.5" fx="23.96336" fy="40.374615" id="radialGradient2644" xlink:href="#linearGradient2795" gradientUnits="userSpaceOnUse" gradientTransform="matrix(1,-2.301335e-6,-6.522924e-8,0.297873,3.664127e-2,28.97356)"/>
    <linearGradient id="linearGradient3635">
      <stop id="stop3637" style="stop-color:#707370;stop-opacity:1" offset="0"/>
      <stop id="stop3639" style="stop-color:#242524;stop-opacity:1" offset="1"/>
    </linearGradient>
    <linearGradient id="linearGradient1482">
      <stop id="stop1484" style="stop-color:#e2e3e0;stop-opacity:1" offset="0"/>
      <stop id="stop1488" style="stop-color:#e0e0de;stop-opacity:1" offset="0.17857143"/>
      <stop id="stop1486" style="stop-color:#ffffff;stop-opacity:0" offset="1"/>
    </linearGradient>
    <linearGradient id="linearGradient1476">
      <stop id="stop1478" style="stop-color:#000000;stop-opacity:0.46601942" offset="0"/>
      <stop id="stop1480" style="stop-color:#000000;stop-opacity:0" offset="1"/>
    </linearGradient>
    <radialGradient cx="23.96336" cy="40.374615" r="23.5" fx="23.96336" fy="40.374615" id="radialGradient2801" xlink:href="#linearGradient2795" gradientUnits="userSpaceOnUse" gradientTransform="matrix(1,-2.301335e-6,-6.522924e-8,0.297873,3.664127e-2,28.97356)"/>
    <linearGradient x1="207.71683" y1="62" x2="207.71683" y2="56.877113" id="linearGradient4224" xlink:href="#linearGradient4218" gradientUnits="userSpaceOnUse" gradientTransform="matrix(1,0,0,0.998304,-190,-26.89582)"/>
    <linearGradient x1="221.39929" y1="64.193214" x2="221.39929" y2="64.947449" id="linearGradient4093" xlink:href="#linearGradient4087" gradientUnits="userSpaceOnUse" gradientTransform="matrix(1,0,0,0.975295,-190,-26.63779)"/>
    <linearGradient x1="206.4698" y1="63.914768" x2="206.50735" y2="64.954399" id="linearGradient4085" xlink:href="#linearGradient4079" gradientUnits="userSpaceOnUse" gradientTransform="matrix(1,0,0,0.975295,-190,-26.63779)"/>
    <radialGradient cx="210.76491" cy="61.016609" r="21" fx="210.76491" fy="61.016609" id="radialGradient4071" xlink:href="#linearGradient4065" gradientUnits="userSpaceOnUse" gradientTransform="matrix(0.899437,-1.184496e-5,0,8.969057e-2,-168.5196,30.65516)"/>
    <linearGradient x1="198.25261" y1="29.854406" x2="218.1942" y2="54.870758" id="linearGradient4053" xlink:href="#linearGradient2829" gradientUnits="userSpaceOnUse" gradientTransform="matrix(1.002741,0,0,0.998021,-190.5863,-25.88717)"/>
    <linearGradient x1="217.75" y1="60.957611" x2="217.75" y2="57.287102" id="linearGradient2289" xlink:href="#linearGradient2283" gradientUnits="userSpaceOnUse" gradientTransform="matrix(0.999057,0,0,1.151023,-189.7906,-35.17189)"/>
    <linearGradient x1="219.625" y1="61.282185" x2="219.625" y2="57.31184" id="linearGradient2281" xlink:href="#linearGradient2275" gradientUnits="userSpaceOnUse" gradientTransform="matrix(0.999057,0,0,1.151023,-189.7906,-35.17189)"/>
    <linearGradient x1="192.61819" y1="44.316147" x2="192.61819" y2="69.140022" id="linearGradient2213" xlink:href="#linearGradient2207" gradientUnits="userSpaceOnUse" gradientTransform="matrix(0.999602,0,0,0.961422,-189.9119,-24.92669)"/>
    <linearGradient id="linearGradient2207">
      <stop id="stop2209" style="stop-color:#ffffff;stop-opacity:1" offset="0"/>
      <stop id="stop2211" style="stop-color:#ffffff;stop-opacity:0" offset="1"/>
    </linearGradient>
    <linearGradient id="linearGradient2275">
      <stop id="stop2277" style="stop-color:#555753;stop-opacity:1" offset="0"/>
      <stop id="stop2279" style="stop-color:#2e3436;stop-opacity:1" offset="1"/>
    </linearGradient>
    <linearGradient id="linearGradient2283">
      <stop id="stop2285" style="stop-color:#555753;stop-opacity:1" offset="0"/>
      <stop id="stop2287" style="stop-color:#2e3436;stop-opacity:1" offset="1"/>
    </linearGradient>
    <linearGradient id="linearGradient4065">
      <stop id="stop4067" style="stop-color:#d3d7cf;stop-opacity:1" offset="0"/>
      <stop id="stop4069" style="stop-color:#555753;stop-opacity:1" offset="1"/>
    </linearGradient>
    <linearGradient id="linearGradient4079">
      <stop id="stop4081" style="stop-color:#555753;stop-opacity:1" offset="0"/>
      <stop id="stop4083" style="stop-color:#555753;stop-opacity:0" offset="1"/>
    </linearGradient>
    <linearGradient id="linearGradient4087">
      <stop id="stop4089" style="stop-color:#555753;stop-opacity:1" offset="0"/>
      <stop id="stop4091" style="stop-color:#2e3436;stop-opacity:0" offset="1"/>
    </linearGradient>
    <linearGradient id="linearGradient4218">
      <stop id="stop4220" style="stop-color:#ffffff;stop-opacity:1" offset="0"/>
      <stop id="stop4222" style="stop-color:#ffffff;stop-opacity:0" offset="1"/>
    </linearGradient>
    <linearGradient id="linearGradient4663">
      <stop id="stop4665" style="stop-color:#000000;stop-opacity:1" offset="0"/>
      <stop id="stop4667" style="stop-color:#2e3436;stop-opacity:1" offset="1"/>
    </linearGradient>
    <linearGradient id="linearGradient2295">
      <stop id="stop2297" style="stop-color:#ffffff;stop-opacity:1" offset="0"/>
      <stop id="stop2299" style="stop-color:#ffffff;stop-opacity:0" offset="1"/>
    </linearGradient>
    <linearGradient id="linearGradient2795">
      <stop id="stop2797" style="stop-color:#000000;stop-opacity:1" offset="0"/>
      <stop id="stop2799" style="stop-color:#000000;stop-opacity:0" offset="1"/>
    </linearGradient>
    <linearGradient id="linearGradient2823">
      <stop id="stop2825" style="stop-color:#babdb6;stop-opacity:1" offset="0"/>
      <stop id="stop2827" style="stop-color:#888a85;stop-opacity:1" offset="1"/>
    </linearGradient>
    <linearGradient id="linearGradient2829">
      <stop id="stop2831" style="stop-color:#babdb6;stop-opacity:1" offset="0"/>
      <stop id="stop2833" style="stop-color:#eeeeec;stop-opacity:1" offset="1"/>
    </linearGradient>
    <linearGradient id="linearGradient3413">
      <stop id="stop3415" style="stop-color:#000000;stop-opacity:1" offset="0"/>
      <stop id="stop3417" style="stop-color:#000000;stop-opacity:0" offset="1"/>
    </linearGradient>
    <linearGradient x1="114" y1="14" x2="108" y2="23" id="linearGradient6843" xlink:href="#linearGradient6826" gradientUnits="userSpaceOnUse"/>
    <linearGradient id="linearGradient6826">
      <stop id="stop6828" style="stop-color:#3c2400;stop-opacity:1" offset="0"/>
      <stop id="stop6830" style="stop-color:#503000;stop-opacity:1" offset="1"/>
    </linearGradient>
    <radialGradient cx="115.24761" cy="34.711994" r="20.03125" fx="115.24761" fy="34.711994" id="radialGradient6845" xlink:href="#linearGradient6764" gradientUnits="userSpaceOnUse" gradientTransform="matrix(1.1236488,-0.3425994,6.6077204e-2,0.2108726,-13.137263,49.686005)"/>
    <linearGradient id="linearGradient6764">
      <stop id="stop6766" style="stop-color:#e9b96e;stop-opacity:1" offset="0"/>
      <stop id="stop6768" style="stop-color:#e9b96e;stop-opacity:0" offset="1"/>
    </linearGradient>
    <radialGradient cx="118" cy="9.6084557" r="20.03125" fx="118" fy="9.6084557" id="radialGradient6847" xlink:href="#linearGradient6764" gradientUnits="userSpaceOnUse" gradientTransform="matrix(1.061526,-0.4507175,6.4934543e-2,0.1505751,-7.6047353,65.384922)"/>
    <radialGradient cx="123.70635" cy="8.0600147" r="19" fx="123.70635" fy="8.0600147" id="radialGradient6849" xlink:href="#linearGradient6782" gradientUnits="userSpaceOnUse" gradientTransform="matrix(1.0847162,-0.3157895,4.4255966e-2,0.1520163,-11.355484,55.089911)"/>
    <linearGradient id="linearGradient6782">
      <stop id="stop6784" style="stop-color:#e9b96e;stop-opacity:1" offset="0"/>
      <stop id="stop6786" style="stop-color:#e9b96e;stop-opacity:0" offset="1"/>
    </linearGradient>
    <radialGradient cx="117.53682" cy="14.015168" r="19" fx="117.53682" fy="14.015168" id="radialGradient6851" xlink:href="#linearGradient6794" gradientUnits="userSpaceOnUse" gradientTransform="matrix(1.1728456,-0.1513157,1.1628721e-2,9.0134038e-2,-20.640516,33.146927)"/>
    <linearGradient id="linearGradient6794">
      <stop id="stop6796" style="stop-color:#e9b96e;stop-opacity:1" offset="0"/>
      <stop id="stop6798" style="stop-color:#e9b96e;stop-opacity:0" offset="1"/>
    </linearGradient>
    <radialGradient cx="82" cy="23.098652" r="11.46875" fx="82" fy="23.098652" id="radialGradient6853" xlink:href="#linearGradient6808" gradientUnits="userSpaceOnUse" gradientTransform="matrix(1,0,0,0.5558583,50,9.1604223)"/>
    <linearGradient id="linearGradient6808">
      <stop id="stop6810" style="stop-color:#e9b96e;stop-opacity:1" offset="0"/>
      <stop id="stop6812" style="stop-color:#e9b96e;stop-opacity:0" offset="1"/>
    </linearGradient>
    <radialGradient cx="110.5" cy="12.5" r="6" fx="110.5" fy="12.5" id="radialGradient6855" xlink:href="#linearGradient6818" gradientUnits="userSpaceOnUse" gradientTransform="matrix(1,0,0,0.8333333,0,2.0833333)"/>
    <linearGradient id="linearGradient6818">
      <stop id="stop6820" style="stop-color:#e9b96e;stop-opacity:1" offset="0"/>
      <stop id="stop6822" style="stop-color:#e9b96e;stop-opacity:0" offset="1"/>
    </linearGradient>
    <radialGradient cx="195.88818" cy="12.02062" r="20" fx="195.88818" fy="12.02062" id="radialGradient6154" xlink:href="#linearGradient2295" gradientUnits="userSpaceOnUse" gradientTransform="matrix(2.433191,0.47803,-0.122315,0.689847,-471.9676,-95.88267)"/>
  </defs>
  <rect width="87.841537" height="56.846771" rx="7" ry="7" x="29.353844" y="58.709175" id="rect2451" style="opacity:1;fill:none;fill-rule:evenodd;stroke:#7a0000;stroke-width:4.38058472;stroke-linecap:butt;stroke-linejoin:miter;stroke-miterlimit:4;stroke-dasharray:none;stroke-opacity:1"/>
  <rect width="122.39251" height="112.2396" rx="7" ry="7" x="189.75896" y="199.14586" id="rect3231" style="opacity:1;fill:none;fill-rule:evenodd;stroke:#7a0000;stroke-width:4.22732544;stroke-linecap:butt;stroke-linejoin:miter;stroke-miterlimit:4;stroke-dasharray:none;stroke-opacity:1"/>
  <rect width="137.7294" height="127.9697" rx="7" ry="7" x="496.19531" y="364.2937" id="rect3247" style="opacity:1;fill:none;fill-rule:evenodd;stroke:#7a0000;stroke-width:4;stroke-linecap:butt;stroke-linejoin:miter;stroke-miterlimit:4;stroke-dasharray:none;stroke-opacity:1"/>
  <rect width="171.29524" height="92.487198" rx="7" ry="7" x="742.03009" y="383.30838" id="rect3259" style="opacity:1;fill:none;fill-rule:evenodd;stroke:#afea00;stroke-width:4;stroke-linecap:butt;stroke-linejoin:miter;stroke-miterlimit:4;stroke-dasharray:none;stroke-opacity:1"/>
  <rect width="170.57986" height="73.803078" rx="7" ry="7" x="477.15344" y="230.54108" id="rect3273" style="opacity:1;fill:none;fill-rule:evenodd;stroke:#afea00;stroke-width:4;stroke-linecap:butt;stroke-linejoin:miter;stroke-miterlimit:4;stroke-dasharray:none;stroke-opacity:1"/>
  <rect width="110.31333" height="52.599041" rx="7" ry="7" x="-308.22504" y="72.393089" transform="scale(-1,1)" id="rect3285" style="font-size:12px;opacity:1;fill:none;fill-rule:evenodd;stroke:#afea00;stroke-width:4;stroke-linecap:butt;stroke-linejoin:miter;stroke-miterlimit:4;stroke-dasharray:none;stroke-opacity:1"/>
  <rect width="168.98871" height="157.36816" rx="7" ry="7" x="762.32397" y="103.21165" id="rect3305" style="opacity:1;fill:none;fill-rule:evenodd;stroke:#ed2d00;stroke-width:4;stroke-linecap:butt;stroke-linejoin:miter;stroke-miterlimit:4;stroke-dasharray:none;stroke-opacity:1"/>
  <g id="g3967">
    <path d="M 643.34375,36.5 C 588.51486,36.200648 543.625,42.34375 543.625,42.34375 L 543.75,43.34375 C 543.75,43.34375 602.32696,35.330376 667.3125,38.0625 C 699.80527,39.428562 733.90397,43.469452 763.0625,52.53125 C 792.22103,61.593048 816.3899,75.670674 829.1875,97 L 830.0625,96.46875 C 817.07885,74.829328 792.63249,60.696014 763.34375,51.59375 C 734.05501,42.491486 699.89004,38.430812 667.34375,37.0625 C 659.20718,36.720422 651.17645,36.542765 643.34375,36.5 z" id="path3319" style="fill:#000000;fill-opacity:1;fill-rule:evenodd;stroke:none;stroke-width:1px;stroke-linecap:butt;stroke-linejoin:miter;stroke-opacity:1"/>
    <path d="M 553.60126,41.479152 L 557.02279,36.974361 L 543.69336,42.833232 L 558.10605,44.90068 L 553.60126,41.479152 z" id="path3973" style="fill-rule:evenodd;stroke:#000000;stroke-width:0.8pt;marker-start:none"/>
  </g>
  <g id="g3903">
    <path d="M 282.75,0.03125 C 257.66998,0.36061673 233.12743,2.7035797 210.3125,6.09375 C 137.30472,16.942295 81.78125,38.46875 81.78125,38.46875 L 82.15625,39.40625 C 82.15625,39.40625 137.57809,17.924892 210.46875,7.09375 C 283.35941,-3.7373923 373.67977,-3.9156721 443.4375,38.5625 L 443.96875,37.71875 C 395.78461,8.3775708 337.92604,-0.69335682 282.75,0.03125 z" id="path7257" style="fill:#000000;fill-opacity:1;fill-rule:evenodd;stroke:none;stroke-width:1px;stroke-linecap:butt;stroke-linejoin:miter;stroke-opacity:1"/>
    <path d="M 91.299577,35.315199 L 93.58485,30.140498 L 81.974609,38.926982 L 96.474277,37.600473 L 91.299577,35.315199 z" id="path3909" style="fill-rule:evenodd;stroke:#000000;stroke-width:0.8pt;marker-start:none"/>
  </g>
  <g id="g3911">
    <path d="M 103.90625,38.4375 L 103.8125,39.4375 C 427.62973,66.678133 732.59375,166.75 732.59375,166.75 L 732.90625,165.78125 C 732.90625,165.78125 427.87508,65.690887 103.90625,38.4375 z" id="path7786" style="fill:#000000;fill-opacity:1;fill-rule:evenodd;stroke:none;stroke-width:1px;stroke-linecap:butt;stroke-linejoin:miter;stroke-opacity:1"/>
    <path d="M 723.25442,163.15262 L 718.2066,165.70596 L 732.75586,166.27073 L 720.70108,158.1048 L 723.25442,163.15262 z" id="path3917" style="fill-rule:evenodd;stroke:#000000;stroke-width:0.8pt;marker-start:none"/>
  </g>
  <g id="g3927">
    <path d="M 236.375,139.6875 L 235.375,139.71875 L 236.625,192.125 L 237.625,192.09375 L 236.375,139.6875 z" id="path8844" style="fill:#000000;fill-opacity:1;fill-rule:evenodd;stroke:none;stroke-width:1px;stroke-linecap:butt;stroke-linejoin:miter;stroke-opacity:1"/>
    <path d="M 236.88171,182.11844 L 232.78845,178.21393 L 237.11764,192.11566 L 240.78623,178.02519 L 236.88171,182.11844 z" id="path3933" style="fill-rule:evenodd;stroke:#000000;stroke-width:0.8pt;marker-start:none"/>
  </g>
  <g id="g3935">
    <path d="M 319.46875,240.78125 L 319.46875,241.78125 L 442.90625,242.5625 L 442.90625,241.5625 L 319.46875,240.78125 z" id="path9373" style="fill:#000000;fill-opacity:1;fill-rule:evenodd;stroke:none;stroke-width:1px;stroke-linecap:butt;stroke-linejoin:miter;stroke-opacity:1"/>
    <path d="M 432.91231,241.98869 L 428.88707,245.96329 L 442.91211,242.05198 L 428.93771,237.96345 L 432.91231,241.98869 z" id="path3941" style="fill-rule:evenodd;stroke:#000000;stroke-width:0.8pt;marker-start:none"/>
  </g>
  <g id="g3943">
    <path d="M 553.5625,314.6875 L 552.5625,314.71875 L 553.34375,349.875 L 554.34375,349.84375 L 553.5625,314.6875 z" id="path9902" style="fill:#000000;fill-opacity:1;fill-rule:evenodd;stroke:none;stroke-width:1px;stroke-linecap:butt;stroke-linejoin:miter;stroke-opacity:1"/>
    <path d="M 553.62744,339.86695 L 549.53956,335.9568 L 553.84961,349.86448 L 557.53759,335.77907 L 553.62744,339.86695 z" id="path3949" style="fill-rule:evenodd;stroke:#000000;stroke-width:0.8pt;marker-start:none"/>
  </g>
  <g id="g3959">
    <path d="M 863.71875,274.78125 L 862.71875,274.96875 C 867.29651,299.06751 865.72613,316.06467 858.5625,330.59375 C 851.39887,345.12283 838.60152,357.212 820.71875,371.34375 L 821.34375,372.125 C 839.2623,357.96497 852.1628,345.7856 859.4375,331.03125 C 866.7122,316.2769 868.32064,299.00699 863.71875,274.78125 z" id="path10960" style="fill:#000000;fill-opacity:1;fill-rule:evenodd;stroke:none;stroke-width:1px;stroke-linecap:butt;stroke-linejoin:miter;stroke-opacity:1"/>
    <path d="M 865.09082,284.6888 L 869.76704,287.87204 L 863.22461,274.86448 L 861.90758,289.36501 L 865.09082,284.6888 z" id="path3965" style="fill-rule:evenodd;stroke:#000000;stroke-width:0.8pt;marker-start:none"/>
  </g>
  <rect width="500" height="432.8125" rx="16" ry="16" x="176.50586" y="67.833237" id="rect11525" style="opacity:1;fill:none;stroke:#d1cfcd;stroke-width:1.5;stroke-miterlimit:4;stroke-dasharray:none;stroke-opacity:1"/>
  <rect width="244.22597" height="432.79999" rx="16" ry="16" x="701.26788" y="67.595253" id="rect11527" style="opacity:1;fill:none;stroke:#d1cfcd;stroke-width:1.5;stroke-miterlimit:4;stroke-dasharray:none;stroke-opacity:1"/>
  <g id="g3951">
    <path d="M 659.3125,426.71875 L 659.3125,427.71875 C 690.17188,428.10938 705.59766,428.30859 713.3125,428.40625 C 717.16992,428.45508 719.09814,428.45654 720.0625,428.46875 C 720.54468,428.47485 720.78571,428.49847 720.90625,428.5 C 720.96652,428.50076 721.01618,428.49981 721.03125,428.5 L 721.03125,428 L 721.03125,427.5 C 721.03125,427.5 721.03125,427.50001 659.3125,426.71875 z" id="path10431" style="fill:#000000;fill-opacity:1;fill-rule:evenodd;stroke:none;stroke-width:1px;stroke-linecap:butt;stroke-linejoin:miter;stroke-opacity:1"/>
    <path d="M 711.03791,427.86291 L 706.9876,431.81196 L 721.03711,427.98948 L 707.08886,423.8126 L 711.03791,427.86291 z" id="path3957" style="fill-rule:evenodd;stroke:#000000;stroke-width:0.8pt;marker-start:none"/>
  </g>
  <g id="g3919">
    <path d="M 89.15625,40.78125 L 88.84375,41.75 C 153.68086,62.060418 188.84375,74.5625 188.84375,74.5625 L 189.1875,73.625 C 189.1875,73.625 154.00664,61.09583 89.15625,40.78125 z" id="path8315" style="fill:#000000;fill-opacity:1;fill-rule:evenodd;stroke:none;stroke-width:1px;stroke-linecap:butt;stroke-linejoin:miter;stroke-opacity:1"/>
    <path d="M 179.58371,70.733135 L 174.47482,73.161955 L 189.00586,74.083232 L 177.15489,65.624238 L 179.58371,70.733135 z" id="path3925" style="fill-rule:evenodd;stroke:#000000;stroke-width:0.8pt;marker-start:none"/>
  </g>
  <g transform="translate(-9.4316406,-2.4792656)" id="g21437" style="font-size:14px">
    <text x="49.642193" y="83.38295" id="text2960" xml:space="preserve" style="font-size:14px;font-style:normal;font-weight:normal;fill:#000000;fill-opacity:1;stroke:none;stroke-width:1px;stroke-linecap:butt;stroke-linejoin:miter;stroke-opacity:1;font-family:Sans"><tspan x="49.642193" y="83.38295" id="tspan2962"><tspan x="49.642193" y="83.38295" id="tspan2964">JSP Page </tspan></tspan><tspan x="49.642193" y="100.88295" id="tspan2966"><tspan x="49.642193" y="100.88295" id="tspan2968">(.JSP)</tspan></tspan></text>
    <text x="208.92934" y="224.15527" id="text2970" xml:space="preserve" style="font-size:14px;font-style:normal;font-weight:normal;fill:#000000;fill-opacity:1;stroke:none;stroke-width:1px;stroke-linecap:butt;stroke-linejoin:miter;stroke-opacity:1;font-family:Sans"><tspan x="208.92934" y="224.15527" id="tspan2972"><tspan x="208.92934" y="224.15527" id="tspan2974">Servlet Source </tspan></tspan><tspan x="208.92934" y="241.65527" id="tspan2976"><tspan x="208.92934" y="241.65527" id="tspan2978">Code</tspan><tspan x="244.77699" y="241.65527" dx="0" id="tspan2980"/></tspan><tspan x="208.92934" y="259.15527" id="tspan2982"><tspan x="208.92934" y="259.15527" id="tspan2984">(.Java)</tspan></tspan></text>
    <text x="528.94379" y="392.64563" id="text2986" xml:space="preserve" style="font-size:14px;font-style:normal;font-variant:normal;font-weight:normal;font-stretch:normal;text-align:start;line-height:125%;writing-mode:lr-tb;text-anchor:start;fill:#000000;fill-opacity:1;stroke:none;stroke-width:1px;stroke-linecap:butt;stroke-linejoin:miter;stroke-opacity:1;font-family:Sans;-inkscape-font-specification:Sans"><tspan x="528.94379" y="392.64563" id="tspan2988"><tspan x="528.94379" y="392.64563" id="tspan2990">Servlet Class</tspan><tspan x="619.80707" y="392.64563" dx="0" id="tspan2992"/></tspan><tspan x="528.94379" y="410.14563" id="tspan2994"><tspan x="528.94379" y="410.14563" id="tspan2996">(.Class)</tspan></tspan></text>
    <text x="826.56494" y="423.3114" id="text2998" xml:space="preserve" style="font-size:14px;font-style:normal;font-weight:normal;fill:#000000;fill-opacity:1;stroke:none;stroke-width:1px;stroke-linecap:butt;stroke-linejoin:miter;stroke-opacity:1;font-family:Sans"><tspan x="826.56494" y="423.3114" id="tspan3000"><tspan x="826.56494" y="423.3114" id="tspan3002">JRE</tspan></tspan></text>
    <text x="506.66702" y="259.53015" id="text3004" xml:space="preserve" style="font-size:14px;font-style:normal;font-weight:normal;fill:#000000;fill-opacity:1;stroke:none;stroke-width:1px;stroke-linecap:butt;stroke-linejoin:miter;stroke-opacity:1;font-family:Sans"><tspan x="506.66702" y="259.53015" id="tspan3006"><tspan x="506.66702" y="259.53015" id="tspan3008">Java Compiler</tspan><tspan x="603.7373" y="259.53015" dx="0" id="tspan3010"/></tspan><tspan x="506.66702" y="277.03015" id="tspan3012"><tspan x="506.66702" y="277.03015" id="tspan3014">(Embedded Server </tspan></tspan></text>
    <text x="215.23634" y="94.673241" id="text3016" xml:space="preserve" style="font-size:14px;font-style:normal;font-weight:normal;fill:#000000;fill-opacity:1;stroke:none;stroke-width:1px;stroke-linecap:butt;stroke-linejoin:miter;stroke-opacity:1;font-family:Sans"><tspan x="215.23634" y="94.673241" id="tspan3018"><tspan x="215.23634" y="94.673241" id="tspan3020">JSP Translator</tspan><tspan x="310.50195" y="94.673241" dx="0" id="tspan3022"/></tspan><tspan x="215.23634" y="112.17324" id="tspan3024"><tspan x="215.23634" y="112.17324" id="tspan3026">(Tomcat)</tspan></tspan></text>
    <text x="814.19183" y="151.71765" id="text3028" xml:space="preserve" style="font-size:14px;font-style:normal;font-weight:normal;fill:#000000;fill-opacity:1;stroke:none;stroke-width:1px;stroke-linecap:butt;stroke-linejoin:miter;stroke-opacity:1;font-family:Sans"><tspan x="814.19183" y="151.71765" id="tspan3030"><tspan x="814.19183" y="151.71765" id="tspan3032">Text Buffer</tspan><tspan x="889.49652" y="151.71765" dx="0" id="tspan3034"/></tspan><tspan x="814.19183" y="169.21765" id="tspan3036"><tspan x="814.19183" y="169.21765" id="tspan3038">(In Memory)</tspan></tspan></text>
    <text x="672.52222" y="31.90024" id="text3040" xml:space="preserve" style="font-size:14px;font-style:normal;font-weight:normal;fill:#000000;fill-opacity:1;stroke:none;stroke-width:1px;stroke-linecap:butt;stroke-linejoin:miter;stroke-opacity:1;font-family:Sans"><tspan x="672.52222" y="31.90024" id="tspan3042"><tspan x="672.52222" y="31.90024" id="tspan3044">Response</tspan></tspan></text>
    <text x="272.88785" y="21.142776" id="text3046" xml:space="preserve" style="font-size:14px;font-style:normal;font-weight:normal;fill:#000000;fill-opacity:1;stroke:none;stroke-width:1px;stroke-linecap:butt;stroke-linejoin:miter;stroke-opacity:1;font-family:Sans"><tspan x="272.88785" y="21.142776" id="tspan3048"><tspan x="272.88785" y="21.142776" id="tspan3050">Request</tspan></tspan></text>
    <text x="724.92151" y="311.61075" id="text3052" xml:space="preserve" style="font-size:14px;font-style:normal;font-weight:normal;fill:#000000;fill-opacity:1;stroke:none;stroke-width:1px;stroke-linecap:butt;stroke-linejoin:miter;stroke-opacity:1;font-family:Sans"><tspan x="724.92151" y="311.61075" id="tspan3054"><tspan x="724.92151" y="311.61075" id="tspan3056">Execution Phase</tspan></tspan></text>
    <text x="209.08392" y="476.1539" id="text3058" xml:space="preserve" style="font-size:14px;font-style:normal;font-weight:normal;fill:#000000;fill-opacity:1;stroke:none;stroke-width:1px;stroke-linecap:butt;stroke-linejoin:miter;stroke-opacity:1;font-family:Sans"><tspan x="209.08392" y="476.1539" id="tspan3060"><tspan x="209.08392" y="476.1539" id="tspan3062">Translation Phase</tspan></tspan></text>
    <text x="10.15625" y="529.57947" id="text3064" xml:space="preserve" style="font-size:14px;font-style:normal;font-variant:normal;font-weight:normal;font-stretch:normal;text-align:start;line-height:100%;writing-mode:lr-tb;text-anchor:start;fill:#000000;fill-opacity:1;stroke:none;stroke-width:1px;stroke-linecap:butt;stroke-linejoin:miter;stroke-opacity:1;font-family:Sans;-inkscape-font-specification:Sans"><tspan x="10.15625" y="529.57947" id="tspan2669">JSP Container</tspan><tspan x="10.15625" y="543.57947" id="tspan2671">(a) Translation occurs at this point if JSP has been changed or is new</tspan><tspan x="10.15625" y="557.57947" id="tspan2673">(b) if not, translation is skipped.</tspan></text>
    <text x="138.28125" y="75.673241" id="text3082" xml:space="preserve" style="font-size:14px;font-style:normal;font-weight:normal;fill:#000000;fill-opacity:1;stroke:none;stroke-width:1px;stroke-linecap:butt;stroke-linejoin:miter;stroke-opacity:1;font-family:Sans"><tspan x="138.28125" y="75.673241" id="tspan3084"><tspan x="138.28125" y="75.673241" id="tspan3086">(a)</tspan></tspan></text>
    <text x="556.25" y="153.01698" id="text3088" xml:space="preserve" style="font-size:14px;font-style:normal;font-weight:normal;fill:#000000;fill-opacity:1;stroke:none;stroke-width:1px;stroke-linecap:butt;stroke-linejoin:miter;stroke-opacity:1;font-family:Sans"><tspan x="556.25" y="153.01698" id="tspan3090"><tspan x="556.25" y="153.01698" id="tspan3092">(b)</tspan></tspan></text>
  </g>
  <g transform="matrix(1.8855437,0,0,1.8855437,448.42659,0.9615078)" id="g21377">
    <g id="layer1"/>
    <g id="layer2" style="display:inline">
      <path d="M 47.5,41 C 47.5,44.865993 36.978692,48 24,48 C 11.021308,48 0.5,44.865993 0.5,41 C 0.5,37.134007 11.021308,34 24,34 C 36.978692,34 47.5,37.134007 47.5,41 L 47.5,41 z" transform="matrix(1.021277,0,0,0.785714,-0.510638,9.285744)" id="path2791" style="opacity:0.3;fill:url(#radialGradient2801);fill-opacity:1;fill-rule:nonzero;stroke:none;stroke-width:1;stroke-linecap:round;stroke-linejoin:miter;marker:none;marker-start:none;marker-mid:none;marker-end:none;stroke-miterlimit:4;stroke-dasharray:none;stroke-dashoffset:0;stroke-opacity:1;visibility:visible;display:inline;overflow:visible"/>
      <path d="M 35.483718,40.06603 C 26.272614,33.246246 46.280822,37.551644 44.370542,33.819063 C 42.460262,30.086482 24.465479,37.223191 24.575471,33.096078 C 24.685463,28.968965 33.612392,35.156174 30.668979,23.516315" id="path2418" style="fill:none;fill-opacity:1;fill-rule:evenodd;stroke:url(#linearGradient2666);stroke-width:1;stroke-linecap:butt;stroke-linejoin:miter;stroke-miterlimit:4;stroke-dasharray:none;stroke-opacity:1"/>
      <path d="M 11,34.5 L 9.5,37.500015 L 38.5,37.5 L 37,34.5 L 11,34.5 z" id="path4055" style="opacity:1;fill:url(#radialGradient4071);fill-opacity:1;fill-rule:evenodd;stroke:#555753;stroke-width:1;stroke-linecap:round;stroke-linejoin:round;stroke-miterlimit:4;stroke-dasharray:none;stroke-opacity:1"/>
      <rect width="15.013332" height="3.6800294" x="16.486656" y="35.462372" id="rect4073" style="opacity:0.7;fill:url(#linearGradient4085);fill-opacity:1;fill-rule:nonzero;stroke:url(#linearGradient4093);stroke-width:1;stroke-linecap:round;stroke-linejoin:miter;marker:none;marker-start:none;marker-mid:none;marker-end:none;stroke-miterlimit:4;stroke-dasharray:none;stroke-dashoffset:0;stroke-opacity:1;visibility:visible;display:inline;overflow:visible"/>
      <path d="M 34.964025,39.56603 C 25.77701,32.698067 46.117473,37.022227 44.341418,33.185272 C 42.565912,29.349501 24.645212,36.584763 24.50175,32.774467 C 24.358288,29.008767 33.092699,34.656174 30.149286,23.016315" id="path1472" style="fill:none;fill-opacity:1;fill-rule:evenodd;stroke:url(#linearGradient2663);stroke-width:1;stroke-linecap:butt;stroke-linejoin:miter;stroke-miterlimit:4;stroke-dasharray:none;stroke-opacity:1;display:inline"/>
      <rect width="15.000947" height="7.8254261" x="16.499573" y="27.674339" id="rect1320" style="opacity:1;fill:url(#linearGradient2289);fill-opacity:1;fill-rule:nonzero;stroke:url(#linearGradient2281);stroke-width:0.99999976;stroke-linecap:round;stroke-linejoin:miter;marker:none;marker-start:none;marker-mid:none;marker-end:none;stroke-miterlimit:4;stroke-dasharray:none;stroke-dashoffset:0;stroke-opacity:1;visibility:visible;display:inline;overflow:visible"/>
      <rect width="13.001343" height="6.9192514" x="17.498657" y="27.580761" id="rect2291" style="opacity:0.23921569;fill:none;fill-opacity:1;fill-rule:nonzero;stroke:url(#linearGradient4224);stroke-width:1.00000048;stroke-linecap:round;stroke-linejoin:miter;marker:none;marker-start:none;marker-mid:none;marker-end:none;stroke-miterlimit:4;stroke-dasharray:none;stroke-dashoffset:0;stroke-opacity:1;visibility:visible;display:inline;overflow:visible"/>
      <rect width="44.997997" height="30.000994" rx="1.625" ry="1.625" x="1.5012436" y="0.49900627" id="rect1318" style="opacity:1;fill:url(#linearGradient4053);fill-opacity:1;fill-rule:nonzero;stroke:#888a85;stroke-width:1;stroke-linecap:round;stroke-linejoin:round;marker:none;marker-start:none;marker-mid:none;marker-end:none;stroke-miterlimit:4;stroke-dasharray:none;stroke-dashoffset:0;stroke-opacity:1;visibility:visible;display:inline;overflow:visible"/>
      <rect width="43.000084" height="27.035091" rx="0.875" ry="0.875" x="2.5000534" y="1.4821644" id="rect1322" style="opacity:0.83921569;fill:none;fill-opacity:1;fill-rule:nonzero;stroke:url(#linearGradient2213);stroke-width:1;stroke-linecap:round;stroke-linejoin:miter;marker:none;marker-start:none;marker-mid:none;marker-end:none;stroke-miterlimit:4;stroke-dasharray:none;stroke-dashoffset:0;stroke-opacity:1;visibility:visible;display:inline;overflow:visible"/>
      <path d="M 2.5,24.5 L 45.5,24.5" id="path2237" style="opacity:0.87843137;fill:none;fill-opacity:0.75;fill-rule:evenodd;stroke:#ffffff;stroke-width:1.00000036;stroke-linecap:square;stroke-linejoin:miter;stroke-miterlimit:4;stroke-dasharray:none;stroke-opacity:1;display:inline"/>
      <g transform="translate(0,15.06603)" id="g2611"/>
      <g transform="translate(0,15.06603)" id="g2613" style="display:inline"/>
      <g transform="translate(0,1.06603)" id="g2401">
        <path d="M 47.5,41 C 47.5,44.865993 36.978692,48 24,48 C 11.021308,48 0.5,44.865993 0.5,41 C 0.5,37.134007 11.021308,34 24,34 C 36.978692,34 47.5,37.134007 47.5,41 L 47.5,41 z" transform="matrix(1.051367,0,0,0.26046,-1.232791,34.07112)" id="path2620" style="opacity:0.5254902;fill:url(#radialGradient2644);fill-opacity:1;fill-rule:nonzero;stroke:none;stroke-width:1;stroke-linecap:round;stroke-linejoin:miter;marker:none;marker-start:none;marker-mid:none;marker-end:none;stroke-miterlimit:4;stroke-dasharray:none;stroke-dashoffset:0;stroke-opacity:1;visibility:visible;display:inline;overflow:visible"/>
        <path d="M 3.5,37.503512 L 44,37.503512 L 47.5,45.433968 L 0.5,45.433968 L 3.5,37.503512 z" id="path2622" style="fill:url(#linearGradient2646);fill-opacity:1;fill-rule:nonzero;stroke:url(#linearGradient2648);stroke-width:1;stroke-linecap:round;stroke-linejoin:round;marker:none;marker-start:none;marker-mid:none;marker-end:none;stroke-miterlimit:4;stroke-dashoffset:0;stroke-opacity:1;visibility:visible;display:inline;overflow:visible"/>
        <path d="M 4.1875,38.6 L 43.5,38.6 L 45.5,43.4 L 2.5,43.4 L 4.1875,38.6 z" id="path2624" style="opacity:0.7;fill:none;fill-opacity:1;fill-rule:nonzero;stroke:#ffffff;stroke-width:1;stroke-linecap:round;stroke-linejoin:miter;marker:none;marker-start:none;marker-mid:none;marker-end:none;stroke-miterlimit:4;stroke-dasharray:none;stroke-dashoffset:0;stroke-opacity:1;visibility:visible;display:inline;overflow:visible"/>
        <path d="M 5.5,37.509221 L 42,37.509221 L 44,42.482127 L 4,42.482127 L 5.5,37.509221 z" id="path2626" style="fill:url(#linearGradient2650);fill-opacity:1;fill-rule:nonzero;stroke:#000000;stroke-width:0.99999988;stroke-linecap:round;stroke-linejoin:miter;marker:none;marker-start:none;marker-mid:none;marker-end:none;stroke-miterlimit:4;stroke-dashoffset:0;stroke-opacity:1;visibility:visible;display:inline;overflow:visible"/>
      </g>
      <path d="M 4.1875,42.06603 L 4.8125,42.06603 C 4.916375,42.06603 5,42.149655 5,42.25353 L 5,42.87853 C 5,42.982405 4.916375,43.06603 4.8125,43.06603 L 4.1875,43.06603 C 4.083625,43.06603 4,42.982405 4,42.87853 L 4,42.25353 C 4,42.149655 4.083625,42.06603 4.1875,42.06603 z M 6.1875,42.06603 L 6.8125,42.06603 C 6.916375,42.06603 7,42.149655 7,42.25353 L 7,42.87853 C 7,42.982405 6.916375,43.06603 6.8125,43.06603 L 6.1875,43.06603 C 6.083625,43.06603 6,42.982405 6,42.87853 L 6,42.25353 C 6,42.149655 6.083625,42.06603 6.1875,42.06603 z M 5.1875,41.06603 L 5.8125,41.06603 C 5.916375,41.06603 6,41.149655 6,41.25353 L 6,41.87853 C 6,41.982405 5.916375,42.06603 5.8125,42.06603 L 5.1875,42.06603 C 5.083625,42.06603 5,41.982405 5,41.87853 L 5,41.25353 C 5,41.149655 5.083625,41.06603 5.1875,41.06603 z M 32.1875,42.06603 L 32.8125,42.06603 C 32.916375,42.06603 33,42.149655 33,42.25353 L 33,42.87853 C 33,42.982405 32.916375,43.06603 32.8125,43.06603 L 32.1875,43.06603 C 32.083625,43.06603 32,42.982405 32,42.87853 L 32,42.25353 C 32,42.149655 32.083625,42.06603 32.1875,42.06603 z M 34.1875,42.06603 L 34.8125,42.06603 C 34.916375,42.06603 35,42.149655 35,42.25353 L 35,42.87853 C 35,42.982405 34.916375,43.06603 34.8125,43.06603 L 34.1875,43.06603 C 34.083625,43.06603 34,42.982405 34,42.87853 L 34,42.25353 C 34,42.149655 34.083625,42.06603 34.1875,42.06603 z M 40.1875,42.06603 L 40.8125,42.06603 C 40.916375,42.06603 41,42.149655 41,42.25353 L 41,42.87853 C 41,42.982405 40.916375,43.06603 40.8125,43.06603 L 40.1875,43.06603 C 40.083625,43.06603 40,42.982405 40,42.87853 L 40,42.25353 C 40,42.149655 40.083625,42.06603 40.1875,42.06603 z M 42.1875,42.06603 L 42.8125,42.06603 C 42.916375,42.06603 43,42.149655 43,42.25353 L 43,42.87853 C 43,42.982405 42.916375,43.06603 42.8125,43.06603 L 42.1875,43.06603 C 42.083625,43.06603 42,42.982405 42,42.87853 L 42,42.25353 C 42,42.149655 42.083625,42.06603 42.1875,42.06603 z M 39.1875,41.06603 L 39.8125,41.06603 C 39.916375,41.06603 40,41.149655 40,41.25353 L 40,41.87853 C 40,41.982405 39.916375,42.06603 39.8125,42.06603 L 39.1875,42.06603 C 39.083625,42.06603 39,41.982405 39,41.87853 L 39,41.25353 C 39,41.149655 39.083625,41.06603 39.1875,41.06603 z M 41.1875,41.06603 L 41.8125,41.06603 C 41.916375,41.06603 42,41.149655 42,41.25353 L 42,41.87853 C 42,41.982405 41.916375,42.06603 41.8125,42.06603 L 41.1875,42.06603 C 41.083625,42.06603 41,41.982405 41,41.87853 L 41,41.25353 C 41,41.149655 41.083625,41.06603 41.1875,41.06603 z M 31.1875,41.06603 L 31.8125,41.06603 C 31.916375,41.06603 32,41.149655 32,41.25353 L 32,41.87853 C 32,41.982405 31.916375,42.06603 31.8125,42.06603 L 31.1875,42.06603 C 31.083625,42.06603 31,41.982405 31,41.87853 L 31,41.25353 C 31,41.149655 31.083625,41.06603 31.1875,41.06603 z M 33.1875,41.06603 L 33.8125,41.06603 C 33.916375,41.06603 34,41.149655 34,41.25353 L 34,41.87853 C 34,41.982405 33.916375,42.06603 33.8125,42.06603 L 33.1875,42.06603 C 33.083625,42.06603 33,41.982405 33,41.87853 L 33,41.25353 C 33,41.149655 33.083625,41.06603 33.1875,41.06603 z M 27.1875,41.06603 L 27.8125,41.06603 C 27.916375,41.06603 28,41.149655 28,41.25353 L 28,41.87853 C 28,41.982405 27.916375,42.06603 27.8125,42.06603 L 27.1875,42.06603 C 27.083625,42.06603 27,41.982405 27,41.87853 L 27,41.25353 C 27,41.149655 27.083625,41.06603 27.1875,41.06603 z M 29.1875,41.06603 L 29.8125,41.06603 C 29.916375,41.06603 30,41.149655 30,41.25353 L 30,41.87853 C 30,41.982405 29.916375,42.06603 29.8125,42.06603 L 29.1875,42.06603 C 29.083625,42.06603 29,41.982405 29,41.87853 L 29,41.25353 C 29,41.149655 29.083625,41.06603 29.1875,41.06603 z M 23.1875,41.06603 L 23.8125,41.06603 C 23.916375,41.06603 24,41.149655 24,41.25353 L 24,41.87853 C 24,41.982405 23.916375,42.06603 23.8125,42.06603 L 23.1875,42.06603 C 23.083625,42.06603 23,41.982405 23,41.87853 L 23,41.25353 C 23,41.149655 23.083625,41.06603 23.1875,41.06603 z M 25.1875,41.06603 L 25.8125,41.06603 C 25.916375,41.06603 26,41.149655 26,41.25353 L 26,41.87853 C 26,41.982405 25.916375,42.06603 25.8125,42.06603 L 25.1875,42.06603 C 25.083625,42.06603 25,41.982405 25,41.87853 L 25,41.25353 C 25,41.149655 25.083625,41.06603 25.1875,41.06603 z M 19.1875,41.06603 L 19.8125,41.06603 C 19.916375,41.06603 20,41.149655 20,41.25353 L 20,41.87853 C 20,41.982405 19.916375,42.06603 19.8125,42.06603 L 19.1875,42.06603 C 19.083625,42.06603 19,41.982405 19,41.87853 L 19,41.25353 C 19,41.149655 19.083625,41.06603 19.1875,41.06603 z M 21.1875,41.06603 L 21.8125,41.06603 C 21.916375,41.06603 22,41.149655 22,41.25353 L 22,41.87853 C 22,41.982405 21.916375,42.06603 21.8125,42.06603 L 21.1875,42.06603 C 21.083625,42.06603 21,41.982405 21,41.87853 L 21,41.25353 C 21,41.149655 21.083625,41.06603 21.1875,41.06603 z M 15.1875,41.06603 L 15.8125,41.06603 C 15.916375,41.06603 16,41.149655 16,41.25353 L 16,41.87853 C 16,41.982405 15.916375,42.06603 15.8125,42.06603 L 15.1875,42.06603 C 15.083625,42.06603 15,41.982405 15,41.87853 L 15,41.25353 C 15,41.149655 15.083625,41.06603 15.1875,41.06603 z M 17.1875,41.06603 L 17.8125,41.06603 C 17.916375,41.06603 18,41.149655 18,41.25353 L 18,41.87853 C 18,41.982405 17.916375,42.06603 17.8125,42.06603 L 17.1875,42.06603 C 17.083625,42.06603 17,41.982405 17,41.87853 L 17,41.25353 C 17,41.149655 17.083625,41.06603 17.1875,41.06603 z M 11.1875,41.06603 L 11.8125,41.06603 C 11.916375,41.06603 12,41.149655 12,41.25353 L 12,41.87853 C 12,41.982405 11.916375,42.06603 11.8125,42.06603 L 11.1875,42.06603 C 11.083625,42.06603 11,41.982405 11,41.87853 L 11,41.25353 C 11,41.149655 11.083625,41.06603 11.1875,41.06603 z M 13.1875,41.06603 L 13.8125,41.06603 C 13.916375,41.06603 14,41.149655 14,41.25353 L 14,41.87853 C 14,41.982405 13.916375,42.06603 13.8125,42.06603 L 13.1875,42.06603 C 13.083625,42.06603 13,41.982405 13,41.87853 L 13,41.25353 C 13,41.149655 13.083625,41.06603 13.1875,41.06603 z M 7.1875,41.06603 L 7.8125,41.06603 C 7.916375,41.06603 8,41.149655 8,41.25353 L 8,41.87853 C 8,41.982405 7.916375,42.06603 7.8125,42.06603 L 7.1875,42.06603 C 7.083625,42.06603 7,41.982405 7,41.87853 L 7,41.25353 C 7,41.149655 7.083625,41.06603 7.1875,41.06603 z M 9.1875,41.06603 L 9.8125,41.06603 C 9.916375,41.06603 10,41.149655 10,41.25353 L 10,41.87853 C 10,41.982405 9.916375,42.06603 9.8125,42.06603 L 9.1875,42.06603 C 9.083625,42.06603 9,41.982405 9,41.87853 L 9,41.25353 C 9,41.149655 9.083625,41.06603 9.1875,41.06603 z M 6.1875,40.06603 L 6.8125,40.06603 C 6.916375,40.06603 7,40.149655 7,40.25353 L 7,40.87853 C 7,40.982405 6.916375,41.06603 6.8125,41.06603 L 6.1875,41.06603 C 6.083625,41.06603 6,40.982405 6,40.87853 L 6,40.25353 C 6,40.149655 6.083625,40.06603 6.1875,40.06603 z M 5.1875,39.06603 L 5.8125,39.06603 C 5.916375,39.06603 6,39.149655 6,39.25353 L 6,39.87853 C 6,39.982405 5.916375,40.06603 5.8125,40.06603 L 5.1875,40.06603 C 5.083625,40.06603 5,39.982405 5,39.87853 L 5,39.25353 C 5,39.149655 5.083625,39.06603 5.1875,39.06603 z M 8.1875,40.06603 L 8.8125,40.06603 C 8.916375,40.06603 9,40.149655 9,40.25353 L 9,40.87853 C 9,40.982405 8.916375,41.06603 8.8125,41.06603 L 8.1875,41.06603 C 8.083625,41.06603 8,40.982405 8,40.87853 L 8,40.25353 C 8,40.149655 8.083625,40.06603 8.1875,40.06603 z M 10.1875,40.06603 L 10.8125,40.06603 C 10.916375,40.06603 11,40.149655 11,40.25353 L 11,40.87853 C 11,40.982405 10.916375,41.06603 10.8125,41.06603 L 10.1875,41.06603 C 10.083625,41.06603 10,40.982405 10,40.87853 L 10,40.25353 C 10,40.149655 10.083625,40.06603 10.1875,40.06603 z M 12.1875,40.06603 L 12.8125,40.06603 C 12.916375,40.06603 13,40.149655 13,40.25353 L 13,40.87853 C 13,40.982405 12.916375,41.06603 12.8125,41.06603 L 12.1875,41.06603 C 12.083625,41.06603 12,40.982405 12,40.87853 L 12,40.25353 C 12,40.149655 12.083625,40.06603 12.1875,40.06603 z M 14.1875,40.06603 L 14.8125,40.06603 C 14.916375,40.06603 15,40.149655 15,40.25353 L 15,40.87853 C 15,40.982405 14.916375,41.06603 14.8125,41.06603 L 14.1875,41.06603 C 14.083625,41.06603 14,40.982405 14,40.87853 L 14,40.25353 C 14,40.149655 14.083625,40.06603 14.1875,40.06603 z M 16.1875,40.06603 L 16.8125,40.06603 C 16.916375,40.06603 17,40.149655 17,40.25353 L 17,40.87853 C 17,40.982405 16.916375,41.06603 16.8125,41.06603 L 16.1875,41.06603 C 16.083625,41.06603 16,40.982405 16,40.87853 L 16,40.25353 C 16,40.149655 16.083625,40.06603 16.1875,40.06603 z M 18.1875,40.06603 L 18.8125,40.06603 C 18.916375,40.06603 19,40.149655 19,40.25353 L 19,40.87853 C 19,40.982405 18.916375,41.06603 18.8125,41.06603 L 18.1875,41.06603 C 18.083625,41.06603 18,40.982405 18,40.87853 L 18,40.25353 C 18,40.149655 18.083625,40.06603 18.1875,40.06603 z M 20.1875,40.06603 L 20.8125,40.06603 C 20.916375,40.06603 21,40.149655 21,40.25353 L 21,40.87853 C 21,40.982405 20.916375,41.06603 20.8125,41.06603 L 20.1875,41.06603 C 20.083625,41.06603 20,40.982405 20,40.87853 L 20,40.25353 C 20,40.149655 20.083625,40.06603 20.1875,40.06603 z M 22.1875,40.06603 L 22.8125,40.06603 C 22.916375,40.06603 23,40.149655 23,40.25353 L 23,40.87853 C 23,40.982405 22.916375,41.06603 22.8125,41.06603 L 22.1875,41.06603 C 22.083625,41.06603 22,40.982405 22,40.87853 L 22,40.25353 C 22,40.149655 22.083625,40.06603 22.1875,40.06603 z M 24.1875,40.06603 L 24.8125,40.06603 C 24.916375,40.06603 25,40.149655 25,40.25353 L 25,40.87853 C 25,40.982405 24.916375,41.06603 24.8125,41.06603 L 24.1875,41.06603 C 24.083625,41.06603 24,40.982405 24,40.87853 L 24,40.25353 C 24,40.149655 24.083625,40.06603 24.1875,40.06603 z M 26.1875,40.06603 L 26.8125,40.06603 C 26.916375,40.06603 27,40.149655 27,40.25353 L 27,40.87853 C 27,40.982405 26.916375,41.06603 26.8125,41.06603 L 26.1875,41.06603 C 26.083625,41.06603 26,40.982405 26,40.87853 L 26,40.25353 C 26,40.149655 26.083625,40.06603 26.1875,40.06603 z M 28.1875,40.06603 L 28.8125,40.06603 C 28.916375,40.06603 29,40.149655 29,40.25353 L 29,40.87853 C 29,40.982405 28.916375,41.06603 28.8125,41.06603 L 28.1875,41.06603 C 28.083625,41.06603 28,40.982405 28,40.87853 L 28,40.25353 C 28,40.149655 28.083625,40.06603 28.1875,40.06603 z M 30.1875,40.06603 L 30.8125,40.06603 C 30.916375,40.06603 31,40.149655 31,40.25353 L 31,40.87853 C 31,40.982405 30.916375,41.06603 30.8125,41.06603 L 30.1875,41.06603 C 30.083625,41.06603 30,40.982405 30,40.87853 L 30,40.25353 C 30,40.149655 30.083625,40.06603 30.1875,40.06603 z M 32.1875,40.06603 L 32.8125,40.06603 C 32.916375,40.06603 33,40.149655 33,40.25353 L 33,40.87853 C 33,40.982405 32.916375,41.06603 32.8125,41.06603 L 32.1875,41.06603 C 32.083625,41.06603 32,40.982405 32,40.87853 L 32,40.25353 C 32,40.149655 32.083625,40.06603 32.1875,40.06603 z M 40.1875,40.06603 L 40.8125,40.06603 C 40.916375,40.06603 41,40.149655 41,40.25353 L 41,40.87853 C 41,40.982405 40.916375,41.06603 40.8125,41.06603 L 40.1875,41.06603 C 40.083625,41.06603 40,40.982405 40,40.87853 L 40,40.25353 C 40,40.149655 40.083625,40.06603 40.1875,40.06603 z M 42.1875,40.06603 L 42.8125,40.06603 C 42.916375,40.06603 43,40.149655 43,40.25353 L 43,40.87853 C 43,40.982405 42.916375,41.06603 42.8125,41.06603 L 42.1875,41.06603 C 42.083625,41.06603 42,40.982405 42,40.87853 L 42,40.25353 C 42,40.149655 42.083625,40.06603 42.1875,40.06603 z M 39.1875,39.06603 L 39.8125,39.06603 C 39.916375,39.06603 40,39.149655 40,39.25353 L 40,39.87853 C 40,39.982405 39.916375,40.06603 39.8125,40.06603 L 39.1875,40.06603 C 39.083625,40.06603 39,39.982405 39,39.87853 L 39,39.25353 C 39,39.149655 39.083625,39.06603 39.1875,39.06603 z M 41.1875,39.06603 L 41.8125,39.06603 C 41.916375,39.06603 42,39.149655 42,39.25353 L 42,39.87853 C 42,39.982405 41.916375,40.06603 41.8125,40.06603 L 41.1875,40.06603 C 41.083625,40.06603 41,39.982405 41,39.87853 L 41,39.25353 C 41,39.149655 41.083625,39.06603 41.1875,39.06603 z M 31.1875,39.06603 L 31.8125,39.06603 C 31.916375,39.06603 32,39.149655 32,39.25353 L 32,39.87853 C 32,39.982405 31.916375,40.06603 31.8125,40.06603 L 31.1875,40.06603 C 31.083625,40.06603 31,39.982405 31,39.87853 L 31,39.25353 C 31,39.149655 31.083625,39.06603 31.1875,39.06603 z M 33.1875,39.06603 L 33.8125,39.06603 C 33.916375,39.06603 34,39.149655 34,39.25353 L 34,39.87853 C 34,39.982405 33.916375,40.06603 33.8125,40.06603 L 33.1875,40.06603 C 33.083625,40.06603 33,39.982405 33,39.87853 L 33,39.25353 C 33,39.149655 33.083625,39.06603 33.1875,39.06603 z M 27.1875,39.06603 L 27.8125,39.06603 C 27.916375,39.06603 28,39.149655 28,39.25353 L 28,39.87853 C 28,39.982405 27.916375,40.06603 27.8125,40.06603 L 27.1875,40.06603 C 27.083625,40.06603 27,39.982405 27,39.87853 L 27,39.25353 C 27,39.149655 27.083625,39.06603 27.1875,39.06603 z M 29.1875,39.06603 L 29.8125,39.06603 C 29.916375,39.06603 30,39.149655 30,39.25353 L 30,39.87853 C 30,39.982405 29.916375,40.06603 29.8125,40.06603 L 29.1875,40.06603 C 29.083625,40.06603 29,39.982405 29,39.87853 L 29,39.25353 C 29,39.149655 29.083625,39.06603 29.1875,39.06603 z M 23.1875,39.06603 L 23.8125,39.06603 C 23.916375,39.06603 24,39.149655 24,39.25353 L 24,39.87853 C 24,39.982405 23.916375,40.06603 23.8125,40.06603 L 23.1875,40.06603 C 23.083625,40.06603 23,39.982405 23,39.87853 L 23,39.25353 C 23,39.149655 23.083625,39.06603 23.1875,39.06603 z M 25.1875,39.06603 L 25.8125,39.06603 C 25.916375,39.06603 26,39.149655 26,39.25353 L 26,39.87853 C 26,39.982405 25.916375,40.06603 25.8125,40.06603 L 25.1875,40.06603 C 25.083625,40.06603 25,39.982405 25,39.87853 L 25,39.25353 C 25,39.149655 25.083625,39.06603 25.1875,39.06603 z M 19.1875,39.06603 L 19.8125,39.06603 C 19.916375,39.06603 20,39.149655 20,39.25353 L 20,39.87853 C 20,39.982405 19.916375,40.06603 19.8125,40.06603 L 19.1875,40.06603 C 19.083625,40.06603 19,39.982405 19,39.87853 L 19,39.25353 C 19,39.149655 19.083625,39.06603 19.1875,39.06603 z M 21.1875,39.06603 L 21.8125,39.06603 C 21.916375,39.06603 22,39.149655 22,39.25353 L 22,39.87853 C 22,39.982405 21.916375,40.06603 21.8125,40.06603 L 21.1875,40.06603 C 21.083625,40.06603 21,39.982405 21,39.87853 L 21,39.25353 C 21,39.149655 21.083625,39.06603 21.1875,39.06603 z M 15.1875,39.06603 L 15.8125,39.06603 C 15.916375,39.06603 16,39.149655 16,39.25353 L 16,39.87853 C 16,39.982405 15.916375,40.06603 15.8125,40.06603 L 15.1875,40.06603 C 15.083625,40.06603 15,39.982405 15,39.87853 L 15,39.25353 C 15,39.149655 15.083625,39.06603 15.1875,39.06603 z M 17.1875,39.06603 L 17.8125,39.06603 C 17.916375,39.06603 18,39.149655 18,39.25353 L 18,39.87853 C 18,39.982405 17.916375,40.06603 17.8125,40.06603 L 17.1875,40.06603 C 17.083625,40.06603 17,39.982405 17,39.87853 L 17,39.25353 C 17,39.149655 17.083625,39.06603 17.1875,39.06603 z M 11.1875,39.06603 L 11.8125,39.06603 C 11.916375,39.06603 12,39.149655 12,39.25353 L 12,39.87853 C 12,39.982405 11.916375,40.06603 11.8125,40.06603 L 11.1875,40.06603 C 11.083625,40.06603 11,39.982405 11,39.87853 L 11,39.25353 C 11,39.149655 11.083625,39.06603 11.1875,39.06603 z M 13.1875,39.06603 L 13.8125,39.06603 C 13.916375,39.06603 14,39.149655 14,39.25353 L 14,39.87853 C 14,39.982405 13.916375,40.06603 13.8125,40.06603 L 13.1875,40.06603 C 13.083625,40.06603 13,39.982405 13,39.87853 L 13,39.25353 C 13,39.149655 13.083625,39.06603 13.1875,39.06603 z M 7.1875,39.06603 L 7.8125,39.06603 C 7.916375,39.06603 8,39.149655 8,39.25353 L 8,39.87853 C 8,39.982405 7.916375,40.06603 7.8125,40.06603 L 7.1875,40.06603 C 7.083625,40.06603 7,39.982405 7,39.87853 L 7,39.25353 C 7,39.149655 7.083625,39.06603 7.1875,39.06603 z M 9.1875,39.06603 L 9.8125,39.06603 C 9.916375,39.06603 10,39.149655 10,39.25353 L 10,39.87853 C 10,39.982405 9.916375,40.06603 9.8125,40.06603 L 9.1875,40.06603 C 9.083625,40.06603 9,39.982405 9,39.87853 L 9,39.25353 C 9,39.149655 9.083625,39.06603 9.1875,39.06603 z M 38.1875,40.06603 L 38.8125,40.06603 C 38.916375,40.06603 39,40.149655 39,40.25353 L 39,40.87853 C 39,40.982405 38.916375,41.06603 38.8125,41.06603 L 38.1875,41.06603 C 38.083625,41.06603 38,40.982405 38,40.87853 L 38,40.25353 C 38,40.149655 38.083625,40.06603 38.1875,40.06603 z" id="rect2491" style="fill:url(#radialGradient2655);fill-opacity:1;fill-rule:evenodd;stroke:none;stroke-width:1;stroke-linecap:round;stroke-linejoin:miter;marker:none;marker-start:none;marker-mid:none;marker-end:none;stroke-miterlimit:10;stroke-dashoffset:0;stroke-opacity:1;visibility:visible;display:inline;overflow:visible"/>
      <path d="M 32.59375,38.0625 L 32.328125,37.671875 C 32.225594,37.285644 33.05134,36.882644 33.390625,37.46875 L 33.953125,38.09375 L 32.59375,38.0625 z" id="path3411" style="opacity:0.50561799;fill:url(#linearGradient3419);fill-opacity:1;fill-rule:evenodd;stroke:none;stroke-width:1;stroke-linecap:round;stroke-linejoin:round;marker:none;marker-start:none;marker-mid:none;marker-end:none;stroke-miterlimit:10;stroke-dasharray:none;stroke-dashoffset:0;stroke-opacity:1;visibility:visible;display:inline;overflow:visible"/>
      <g transform="translate(1.1630833e-2,-3.9910048)" id="g7352" style="display:inline">
        <g transform="translate(-100,0)" id="g6834">
          <rect width="38.988369" height="20.008995" x="104.5" y="7.4910049" id="rect6752" style="fill:url(#linearGradient6843);fill-opacity:1;fill-rule:nonzero;stroke:#281800;stroke-width:1.00000036;stroke-linecap:round;stroke-linejoin:round;marker:none;marker-start:none;marker-mid:none;marker-end:none;stroke-miterlimit:4;stroke-dasharray:none;stroke-dashoffset:0;stroke-opacity:1;visibility:visible;display:inline;overflow:visible"/>
          <path d="M 143,13.647059 L 142.94072,8.0588234 L 127.76443,8 C 119.76575,14.153317 112.84201,16.232994 105,17.411765 L 105,24 C 121.85281,22.16999 132.48465,17.931082 143,13.647059 z" id="path6802" style="opacity:0.26244345;fill:url(#radialGradient6845);fill-opacity:1;fill-rule:evenodd;stroke:none;stroke-width:1px;stroke-linecap:butt;stroke-linejoin:miter;stroke-opacity:1;display:inline"/>
          <path d="M 143,13.647059 L 142.94072,8.0588234 L 127.76443,8 C 119.76575,14.153317 112.84201,16.232994 105,17.411765 L 105,24 C 121.85281,22.16999 132.48465,17.931082 143,13.647059 z" id="path6748" style="opacity:0.47511309;fill:url(#radialGradient6847);fill-opacity:1;fill-rule:evenodd;stroke:none;stroke-width:1px;stroke-linecap:butt;stroke-linejoin:miter;stroke-opacity:1"/>
          <path d="M 143,13 L 143,12 C 125.9,19 111.65,22 105,22 L 105,24 C 121.87913,22.055614 132.46822,17.551775 143,13 z" id="path6778" style="opacity:0.47511309;fill:url(#radialGradient6849);fill-opacity:1;fill-rule:evenodd;stroke:none;stroke-width:1px;stroke-linecap:butt;stroke-linejoin:miter;stroke-opacity:1;display:inline"/>
          <path d="M 143,8 C 119.8375,17.5 109.525,19.6875 105,19 L 105,21 C 122.02249,18.301047 131.77083,12.708333 143,8 z" id="path6790" style="opacity:0.47511309;fill:url(#radialGradient6851);fill-opacity:1;fill-rule:evenodd;stroke:none;stroke-width:1px;stroke-linecap:butt;stroke-linejoin:miter;stroke-opacity:1;display:inline"/>
          <path d="M 142.9375,14.25 L 142.9375,17.0625 C 136.625,21.810213 130.3125,24.357323 124,27 L 120,27 C 128.16211,24.040688 136.09517,20.508772 142.9375,14.25 z" id="path6806" style="opacity:0.29411765;fill:url(#radialGradient6853);fill-opacity:1;fill-rule:evenodd;stroke:none;stroke-width:1px;stroke-linecap:butt;stroke-linejoin:miter;stroke-opacity:1"/>
          <path d="M 105,17 C 110.96747,14.657371 113.43995,11.316176 116,8" id="path6816" style="opacity:0.26696831;fill:none;fill-rule:evenodd;stroke:url(#radialGradient6855);stroke-width:1px;stroke-linecap:round;stroke-linejoin:miter;stroke-opacity:1"/>
        </g>
        <path d="M 5.000001,7.997234 L 43.000001,7.997234 L 43.000001,15.997234 C 30.875001,12.184734 15.400001,11.747234 5.000001,22.265109 L 5.000001,7.997234 z" id="path7398" style="opacity:0.7;fill:url(#radialGradient6154);fill-opacity:1;fill-rule:nonzero;stroke:none;stroke-width:1;stroke-linecap:round;stroke-linejoin:miter;marker:none;marker-start:none;marker-mid:none;marker-end:none;stroke-miterlimit:4;stroke-dashoffset:0;stroke-opacity:1;visibility:visible;display:inline;overflow:visible"/>
      </g>
    </g>
    <g id="layer3" style="display:inline">
      <g transform="translate(-190,-26)" id="g4120" style="opacity:1;fill:#555753">
        <path d="M 194.5,51.25 C 194.5,51.388071 194.38807,51.5 194.25,51.5 C 194.11193,51.5 194,51.388071 194,51.25 C 194,51.111929 194.11193,51 194.25,51 C 194.38807,51 194.5,51.111929 194.5,51.25 z" transform="matrix(2.000052,0,0,1.99997,-194.0101,-50.99845)" id="path4104" style="opacity:0.80392157;fill:#555753;fill-opacity:1;fill-rule:nonzero;stroke:none;stroke-width:1.10000002;stroke-linecap:square;stroke-linejoin:miter;marker:none;marker-start:none;marker-mid:none;marker-end:none;stroke-miterlimit:4;stroke-dasharray:none;stroke-dashoffset:0;stroke-opacity:1;visibility:visible;display:inline;overflow:visible"/>
        <path d="M 194.5,51.25 C 194.5,51.388071 194.38807,51.5 194.25,51.5 C 194.11193,51.5 194,51.388071 194,51.25 C 194,51.111929 194.11193,51 194.25,51 C 194.38807,51 194.5,51.111929 194.5,51.25 z" transform="matrix(2.000052,0,0,1.99997,-193.0101,-49.99847)" id="path4106" style="opacity:0.80392157;fill:#555753;fill-opacity:1;fill-rule:nonzero;stroke:none;stroke-width:1.10000002;stroke-linecap:square;stroke-linejoin:miter;marker:none;marker-start:none;marker-mid:none;marker-end:none;stroke-miterlimit:4;stroke-dasharray:none;stroke-dashoffset:0;stroke-opacity:1;visibility:visible;display:inline;overflow:visible"/>
        <path d="M 194.5,51.25 C 194.5,51.388071 194.38807,51.5 194.25,51.5 C 194.11193,51.5 194,51.388071 194,51.25 C 194,51.111929 194.11193,51 194.25,51 C 194.38807,51 194.5,51.111929 194.5,51.25 z" transform="matrix(2.000052,0,0,1.99997,-194.0101,-48.99847)" id="path4108" style="opacity:0.80392157;fill:#555753;fill-opacity:1;fill-rule:nonzero;stroke:none;stroke-width:1.10000002;stroke-linecap:square;stroke-linejoin:miter;marker:none;marker-start:none;marker-mid:none;marker-end:none;stroke-miterlimit:4;stroke-dasharray:none;stroke-dashoffset:0;stroke-opacity:1;visibility:visible;display:inline;overflow:visible"/>
        <path d="M 194.5,51.25 C 194.5,51.388071 194.38807,51.5 194.25,51.5 C 194.11193,51.5 194,51.388071 194,51.25 C 194,51.111929 194.11193,51 194.25,51 C 194.38807,51 194.5,51.111929 194.5,51.25 z" transform="matrix(2.000052,0,0,1.99997,-192.0101,-48.99847)" id="path4110" style="opacity:0.80392157;fill:#555753;fill-opacity:1;fill-rule:nonzero;stroke:none;stroke-width:1.10000002;stroke-linecap:square;stroke-linejoin:miter;marker:none;marker-start:none;marker-mid:none;marker-end:none;stroke-miterlimit:4;stroke-dasharray:none;stroke-dashoffset:0;stroke-opacity:1;visibility:visible;display:inline;overflow:visible"/>
        <path d="M 194.5,51.25 C 194.5,51.388071 194.38807,51.5 194.25,51.5 C 194.11193,51.5 194,51.388071 194,51.25 C 194,51.111929 194.11193,51 194.25,51 C 194.38807,51 194.5,51.111929 194.5,51.25 z" transform="matrix(2.000052,0,0,1.99997,-192.0101,-50.99845)" id="path4112" style="opacity:0.80392157;fill:#555753;fill-opacity:1;fill-rule:nonzero;stroke:none;stroke-width:1.10000002;stroke-linecap:square;stroke-linejoin:miter;marker:none;marker-start:none;marker-mid:none;marker-end:none;stroke-miterlimit:4;stroke-dasharray:none;stroke-dashoffset:0;stroke-opacity:1;visibility:visible;display:inline;overflow:visible"/>
        <path d="M 194.5,51.25 C 194.5,51.388071 194.38807,51.5 194.25,51.5 C 194.11193,51.5 194,51.388071 194,51.25 C 194,51.111929 194.11193,51 194.25,51 C 194.38807,51 194.5,51.111929 194.5,51.25 z" transform="matrix(2.000052,0,0,1.99997,-191.0101,-49.99845)" id="path4114" style="opacity:0.80392157;fill:#555753;fill-opacity:1;fill-rule:nonzero;stroke:none;stroke-width:1.10000002;stroke-linecap:square;stroke-linejoin:miter;marker:none;marker-start:none;marker-mid:none;marker-end:none;stroke-miterlimit:4;stroke-dasharray:none;stroke-dashoffset:0;stroke-opacity:1;visibility:visible;display:inline;overflow:visible"/>
        <path d="M 194.5,51.25 C 194.5,51.388071 194.38807,51.5 194.25,51.5 C 194.11193,51.5 194,51.388071 194,51.25 C 194,51.111929 194.11193,51 194.25,51 C 194.38807,51 194.5,51.111929 194.5,51.25 z" transform="matrix(2.000052,0,0,1.99997,-190.0101,-50.99847)" id="path4116" style="opacity:0.80392157;fill:#555753;fill-opacity:1;fill-rule:nonzero;stroke:none;stroke-width:1.10000002;stroke-linecap:square;stroke-linejoin:miter;marker:none;marker-start:none;marker-mid:none;marker-end:none;stroke-miterlimit:4;stroke-dasharray:none;stroke-dashoffset:0;stroke-opacity:1;visibility:visible;display:inline;overflow:visible"/>
        <path d="M 194.5,51.25 C 194.5,51.388071 194.38807,51.5 194.25,51.5 C 194.11193,51.5 194,51.388071 194,51.25 C 194,51.111929 194.11193,51 194.25,51 C 194.38807,51 194.5,51.111929 194.5,51.25 z" transform="matrix(2.000052,0,0,1.99997,-190.0101,-48.99847)" id="path4118" style="opacity:0.80392157;fill:#555753;fill-opacity:1;fill-rule:nonzero;stroke:none;stroke-width:1.10000002;stroke-linecap:square;stroke-linejoin:miter;marker:none;marker-start:none;marker-mid:none;marker-end:none;stroke-miterlimit:4;stroke-dasharray:none;stroke-dashoffset:0;stroke-opacity:1;visibility:visible;display:inline;overflow:visible"/>
      </g>
      <g transform="translate(-155,-26)" id="g4132" style="opacity:1;fill:#555753">
        <path d="M 194.5,51.25 C 194.5,51.388071 194.38807,51.5 194.25,51.5 C 194.11193,51.5 194,51.388071 194,51.25 C 194,51.111929 194.11193,51 194.25,51 C 194.38807,51 194.5,51.111929 194.5,51.25 z" transform="matrix(2.000052,0,0,1.99997,-194.0101,-50.99845)" id="path4134" style="opacity:0.80392157;fill:#555753;fill-opacity:1;fill-rule:nonzero;stroke:none;stroke-width:1.10000002;stroke-linecap:square;stroke-linejoin:miter;marker:none;marker-start:none;marker-mid:none;marker-end:none;stroke-miterlimit:4;stroke-dasharray:none;stroke-dashoffset:0;stroke-opacity:1;visibility:visible;display:inline;overflow:visible"/>
        <path d="M 194.5,51.25 C 194.5,51.388071 194.38807,51.5 194.25,51.5 C 194.11193,51.5 194,51.388071 194,51.25 C 194,51.111929 194.11193,51 194.25,51 C 194.38807,51 194.5,51.111929 194.5,51.25 z" transform="matrix(2.000052,0,0,1.99997,-193.0101,-49.99847)" id="path4136" style="opacity:0.80392157;fill:#555753;fill-opacity:1;fill-rule:nonzero;stroke:none;stroke-width:1.10000002;stroke-linecap:square;stroke-linejoin:miter;marker:none;marker-start:none;marker-mid:none;marker-end:none;stroke-miterlimit:4;stroke-dasharray:none;stroke-dashoffset:0;stroke-opacity:1;visibility:visible;display:inline;overflow:visible"/>
        <path d="M 194.5,51.25 C 194.5,51.388071 194.38807,51.5 194.25,51.5 C 194.11193,51.5 194,51.388071 194,51.25 C 194,51.111929 194.11193,51 194.25,51 C 194.38807,51 194.5,51.111929 194.5,51.25 z" transform="matrix(2.000052,0,0,1.99997,-194.0101,-48.99847)" id="path4138" style="opacity:0.80392157;fill:#555753;fill-opacity:1;fill-rule:nonzero;stroke:none;stroke-width:1.10000002;stroke-linecap:square;stroke-linejoin:miter;marker:none;marker-start:none;marker-mid:none;marker-end:none;stroke-miterlimit:4;stroke-dasharray:none;stroke-dashoffset:0;stroke-opacity:1;visibility:visible;display:inline;overflow:visible"/>
        <path d="M 194.5,51.25 C 194.5,51.388071 194.38807,51.5 194.25,51.5 C 194.11193,51.5 194,51.388071 194,51.25 C 194,51.111929 194.11193,51 194.25,51 C 194.38807,51 194.5,51.111929 194.5,51.25 z" transform="matrix(2.000052,0,0,1.99997,-192.0101,-48.99847)" id="path4140" style="opacity:0.80392157;fill:#555753;fill-opacity:1;fill-rule:nonzero;stroke:none;stroke-width:1.10000002;stroke-linecap:square;stroke-linejoin:miter;marker:none;marker-start:none;marker-mid:none;marker-end:none;stroke-miterlimit:4;stroke-dasharray:none;stroke-dashoffset:0;stroke-opacity:1;visibility:visible;display:inline;overflow:visible"/>
        <path d="M 194.5,51.25 C 194.5,51.388071 194.38807,51.5 194.25,51.5 C 194.11193,51.5 194,51.388071 194,51.25 C 194,51.111929 194.11193,51 194.25,51 C 194.38807,51 194.5,51.111929 194.5,51.25 z" transform="matrix(2.000052,0,0,1.99997,-192.0101,-50.99845)" id="path4142" style="opacity:0.80392157;fill:#555753;fill-opacity:1;fill-rule:nonzero;stroke:none;stroke-width:1.10000002;stroke-linecap:square;stroke-linejoin:miter;marker:none;marker-start:none;marker-mid:none;marker-end:none;stroke-miterlimit:4;stroke-dasharray:none;stroke-dashoffset:0;stroke-opacity:1;visibility:visible;display:inline;overflow:visible"/>
        <path d="M 194.5,51.25 C 194.5,51.388071 194.38807,51.5 194.25,51.5 C 194.11193,51.5 194,51.388071 194,51.25 C 194,51.111929 194.11193,51 194.25,51 C 194.38807,51 194.5,51.111929 194.5,51.25 z" transform="matrix(2.000052,0,0,1.99997,-191.0101,-49.99845)" id="path4144" style="opacity:0.80392157;fill:#555753;fill-opacity:1;fill-rule:nonzero;stroke:none;stroke-width:1.10000002;stroke-linecap:square;stroke-linejoin:miter;marker:none;marker-start:none;marker-mid:none;marker-end:none;stroke-miterlimit:4;stroke-dasharray:none;stroke-dashoffset:0;stroke-opacity:1;visibility:visible;display:inline;overflow:visible"/>
        <path d="M 194.5,51.25 C 194.5,51.388071 194.38807,51.5 194.25,51.5 C 194.11193,51.5 194,51.388071 194,51.25 C 194,51.111929 194.11193,51 194.25,51 C 194.38807,51 194.5,51.111929 194.5,51.25 z" transform="matrix(2.000052,0,0,1.99997,-190.0101,-50.99847)" id="path4146" style="opacity:0.80392157;fill:#555753;fill-opacity:1;fill-rule:nonzero;stroke:none;stroke-width:1.10000002;stroke-linecap:square;stroke-linejoin:miter;marker:none;marker-start:none;marker-mid:none;marker-end:none;stroke-miterlimit:4;stroke-dasharray:none;stroke-dashoffset:0;stroke-opacity:1;visibility:visible;display:inline;overflow:visible"/>
        <path d="M 194.5,51.25 C 194.5,51.388071 194.38807,51.5 194.25,51.5 C 194.11193,51.5 194,51.388071 194,51.25 C 194,51.111929 194.11193,51 194.25,51 C 194.38807,51 194.5,51.111929 194.5,51.25 z" transform="matrix(2.000052,0,0,1.99997,-190.0101,-48.99847)" id="path4148" style="opacity:0.80392157;fill:#555753;fill-opacity:1;fill-rule:nonzero;stroke:none;stroke-width:1.10000002;stroke-linecap:square;stroke-linejoin:miter;marker:none;marker-start:none;marker-mid:none;marker-end:none;stroke-miterlimit:4;stroke-dasharray:none;stroke-dashoffset:0;stroke-opacity:1;visibility:visible;display:inline;overflow:visible"/>
      </g>
      <path d="M 30.5,25.5 L 30.5,27.5" id="path4150" style="opacity:1;fill:none;fill-opacity:1;fill-rule:evenodd;stroke:#888a85;stroke-width:1;stroke-linecap:round;stroke-linejoin:miter;stroke-miterlimit:4;stroke-dasharray:none;stroke-opacity:1"/>
      <path d="M 32.5,25.5 L 32.5,27.5" id="path2308" style="opacity:1;fill:none;fill-opacity:1;fill-rule:evenodd;stroke:#888a85;stroke-width:1;stroke-linecap:round;stroke-linejoin:miter;stroke-miterlimit:4;stroke-dasharray:none;stroke-opacity:1;display:inline"/>
      <path d="M 34.5,25.5 L 34.5,27.5" id="path2312" style="opacity:1;fill:none;fill-opacity:1;fill-rule:evenodd;stroke:#888a85;stroke-width:1;stroke-linecap:round;stroke-linejoin:miter;stroke-miterlimit:4;stroke-dasharray:none;stroke-opacity:1;display:inline"/>
      <path d="M 36.5,25.5 L 36.5,27.5" id="path2326" style="opacity:1;fill:#babdb6;fill-opacity:1;fill-rule:evenodd;stroke:#f57900;stroke-width:1;stroke-linecap:round;stroke-linejoin:miter;stroke-miterlimit:4;stroke-dasharray:none;stroke-opacity:1;display:inline"/>
      <path d="M 35.837436,33.151112 C 35.83773,33.6788 35.440592,34.106744 34.950596,34.106744 C 34.4606,34.106744 34.063462,33.6788 34.063756,33.151112 C 34.063462,32.623424 34.4606,32.19548 34.950596,32.19548 C 35.440592,32.19548 35.83773,32.623424 35.837436,33.151112 z" transform="matrix(0.5638,0,0,0.523528,10.79487,10.14446)" id="path4951" style="opacity:1;fill:#eeeeec;fill-opacity:1;fill-rule:nonzero;stroke:none;stroke-width:1;stroke-linecap:round;stroke-linejoin:miter;marker:none;marker-start:none;marker-mid:none;marker-end:none;stroke-miterlimit:4;stroke-dasharray:none;stroke-dashoffset:0;stroke-opacity:1;visibility:visible;display:inline;overflow:visible"/>
      <path d="M 35.837436,33.151112 C 35.83773,33.6788 35.440592,34.106744 34.950596,34.106744 C 34.4606,34.106744 34.063462,33.6788 34.063756,33.151112 C 34.063462,32.623424 34.4606,32.19548 34.950596,32.19548 C 35.440592,32.19548 35.83773,32.623424 35.837436,33.151112 z" transform="matrix(0.5638,0,0,0.523528,12.79485,10.14446)" id="path4953" style="opacity:1;fill:#eeeeec;fill-opacity:1;fill-rule:nonzero;stroke:none;stroke-width:1;stroke-linecap:round;stroke-linejoin:miter;marker:none;marker-start:none;marker-mid:none;marker-end:none;stroke-miterlimit:4;stroke-dasharray:none;stroke-dashoffset:0;stroke-opacity:1;visibility:visible;display:inline;overflow:visible"/>
      <path d="M 35.837436,33.151112 C 35.83773,33.6788 35.440592,34.106744 34.950596,34.106744 C 34.4606,34.106744 34.063462,33.6788 34.063756,33.151112 C 34.063462,32.623424 34.4606,32.19548 34.950596,32.19548 C 35.440592,32.19548 35.83773,32.623424 35.837436,33.151112 z" transform="matrix(0.5638,0,0,0.523528,14.79485,10.14446)" id="path4955" style="opacity:1;fill:#eeeeec;fill-opacity:1;fill-rule:nonzero;stroke:none;stroke-width:1;stroke-linecap:round;stroke-linejoin:miter;marker:none;marker-start:none;marker-mid:none;marker-end:none;stroke-miterlimit:4;stroke-dasharray:none;stroke-dashoffset:0;stroke-opacity:1;visibility:visible;display:inline;overflow:visible"/>
      <path d="M 35.837436,33.151112 C 35.83773,33.6788 35.440592,34.106744 34.950596,34.106744 C 34.4606,34.106744 34.063462,33.6788 34.063756,33.151112 C 34.063462,32.623424 34.4606,32.19548 34.950596,32.19548 C 35.440592,32.19548 35.83773,32.623424 35.837436,33.151112 z" transform="matrix(0.5638,0,0,0.523528,16.79485,8.144465)" id="path4957" style="opacity:1;fill:#fce94f;fill-opacity:1;fill-rule:nonzero;stroke:none;stroke-width:1;stroke-linecap:round;stroke-linejoin:miter;marker:none;marker-start:none;marker-mid:none;marker-end:none;stroke-miterlimit:4;stroke-dasharray:none;stroke-dashoffset:0;stroke-opacity:1;visibility:visible;display:inline;overflow:visible"/>
    </g>
  </g>
</svg>